<?xml version="1.0" standalone="no"?>
<!DOCTYPE svg PUBLIC "-//W3C//DTD SVG 20010904//EN"
 "http://www.w3.org/TR/2001/REC-SVG-20010904/DTD/svg10.dtd">
<svg version="1.0" xmlns="http://www.w3.org/2000/svg"
 width="500.000000pt" height="500.000000pt" viewBox="0 0 500.000000 500.000000"
 preserveAspectRatio="xMidYMid meet">
<metadata>
Created by potrace 1.16, written by Peter Selinger 2001-2019
</metadata>
<g transform="translate(0.000000,500.000000) scale(0.100000,-0.100000)"
fill="#000000" stroke="none">
<path d="M2549 3379 c-110 -16 -225 -51 -327 -99 -56 -27 -105 -49 -107 -50
-3 0 -13 -8 -23 -17 -44 -42 -82 -73 -82 -66 0 5 -5 0 -11 -9 -5 -10 -18 -18
-27 -18 -15 0 -15 -2 -2 -11 11 -8 5 -9 -25 -5 -27 4 -35 2 -25 -4 12 -8 9
-10 -12 -10 -36 0 -41 -12 -23 -56 8 -20 13 -39 11 -42 -3 -2 1 -10 8 -18 35
-35 82 -291 71 -389 -9 -81 -25 -146 -36 -139 -5 3 -6 -2 -3 -10 3 -8 -3 -30
-13 -50 l-18 -36 3 110 c5 130 -7 210 -53 345 -33 98 -90 231 -104 239 -3 3
-47 -11 -96 -30 -50 -19 -100 -35 -112 -36 -13 0 -21 -4 -18 -8 6 -10 -65 -41
-77 -34 -6 4 -8 2 -4 -4 6 -10 -30 -28 -46 -24 -5 1 -8 -2 -8 -7 0 -10 -39
-27 -53 -23 -5 1 -6 -1 -4 -5 2 -5 -33 -31 -80 -60 -46 -28 -81 -46 -77 -40 3
7 -2 3 -11 -8 -9 -11 -21 -19 -26 -18 -5 2 -9 -1 -9 -6 0 -9 -104 -91 -116
-91 -3 0 -15 -11 -26 -25 -11 -14 -24 -23 -28 -20 -5 3 -14 -4 -20 -15 -6 -11
-16 -17 -22 -14 -7 4 -8 3 -4 -4 4 -7 3 -12 -1 -12 -5 0 -10 -19 -12 -42 -1
-23 -5 -46 -8 -52 -3 -6 -3 -8 2 -4 8 8 50 -39 50 -56 0 -5 9 -10 20 -12 11
-2 33 -18 49 -36 16 -18 25 -27 21 -20 -4 7 20 -6 53 -30 33 -24 57 -47 54
-52 -3 -5 0 -6 5 -3 6 4 21 -1 34 -11 13 -10 56 -38 94 -62 39 -23 73 -47 76
-52 3 -6 8 -8 10 -7 2 2 45 -16 94 -41 50 -24 132 -60 182 -80 51 -20 90 -41
85 -45 -4 -5 -2 -5 5 -2 11 7 171 -30 186 -43 5 -4 10 -16 12 -26 1 -11 7 -18
13 -17 5 1 28 -15 51 -36 22 -21 42 -36 44 -34 2 2 17 -9 33 -24 16 -15 33
-26 37 -25 5 1 23 -6 40 -16 18 -11 53 -27 79 -37 26 -10 45 -21 42 -26 -3 -5
1 -7 8 -4 7 2 44 -4 82 -14 38 -10 64 -20 56 -23 -7 -2 4 -4 26 -4 21 0 76 -4
122 -9 60 -6 82 -5 82 4 0 6 -5 11 -11 11 -5 0 -7 5 -3 12 4 7 3 8 -4 4 -7 -4
-23 4 -36 17 -14 14 -27 23 -29 21 -7 -8 -69 68 -83 102 -16 38 -19 94 -4 94
5 0 7 6 4 13 -3 9 14 17 58 26 106 21 297 89 425 150 67 33 124 57 127 55 3
-2 4 -1 1 3 -8 10 107 73 118 66 6 -3 7 -1 4 4 -13 20 129 67 239 79 l62 6 30
-60 c17 -33 28 -64 24 -68 -4 -5 -3 -6 1 -3 4 4 31 -17 58 -46 88 -93 246
-158 404 -166 l70 -4 3 59 c4 69 -21 201 -49 265 -10 24 -16 48 -12 54 3 6 1
7 -5 3 -7 -4 -12 -3 -12 3 0 5 -15 30 -34 54 -19 25 -32 48 -29 51 4 3 -1 6
-11 6 -9 0 -14 5 -11 10 4 6 2 9 -3 8 -5 -2 -23 9 -39 23 -17 15 -40 30 -52
34 -11 3 -21 11 -21 16 0 6 -6 7 -12 3 -9 -5 -8 -2 1 10 8 9 20 15 28 12 8 -3
11 -1 8 4 -5 9 0 11 21 10 3 -1 14 9 24 22 11 13 19 19 20 15 0 -5 6 -2 13 5
105 110 177 297 177 459 l0 62 -92 -8 c-51 -4 -105 -8 -120 -9 -14 0 -25 -3
-23 -6 2 -3 -20 -14 -48 -24 -60 -21 -155 -76 -181 -105 -10 -11 -23 -18 -27
-15 -5 3 -9 -2 -9 -10 0 -9 -4 -16 -10 -16 -5 0 -9 -6 -7 -12 1 -7 -5 -12 -13
-10 -8 2 -12 1 -8 -3 3 -4 -9 -39 -28 -78 -19 -39 -34 -78 -34 -87 0 -12 -2
-12 -9 -1 -5 7 -11 9 -14 4 -9 -14 -139 4 -200 28 -76 30 -147 71 -141 80 3 5
-3 6 -12 2 -13 -5 -15 -3 -9 8 4 8 5 11 0 7 -9 -9 -85 29 -85 42 0 6 -3 9 -7
8 -15 -4 -53 14 -53 24 0 6 -3 9 -6 5 -7 -7 -147 52 -156 67 -4 6 -8 8 -8 4 0
-4 -30 3 -67 16 -38 13 -100 31 -140 40 l-72 18 -6 43 c-5 31 -2 52 10 76 29
57 56 90 67 83 6 -4 8 -3 5 3 -6 10 41 50 65 55 14 3 28 18 28 31 0 9 -67 7
-141 -4z"/>
</g>
</svg>
