<?xml version="1.0" encoding="iso-8859-1"?>
<!-- Uploaded to: SVG Repo, www.svgrepo.com, Generator: SVG Repo Mixer Tools -->
<svg fill="#000000" height="800px" width="800px" version="1.1" id="Layer_1" xmlns="http://www.w3.org/2000/svg" xmlns:xlink="http://www.w3.org/1999/xlink" 
	 viewBox="0 0 512.002 512.002" xml:space="preserve">
<g>
	<g>
		<path d="M377.867,138.395l-0.447-0.254c-44.256-26.932-49.502-30.66-61.035-53.632c-4.885-9.72-15.777-22.05-25.38-28.74
			c-6.4-4.095-13.926-6.171-22.373-6.171c-17.486,0-35.5,8.87-44.256,17.632c-21.31,21.31-41.431,53.925-29.112,134.272l0.042,0.312
			c1.721,14.688,9.426,28.514,17.583,43.154c10.761,19.31,22.957,41.196,23.038,69.024c0.024,7.507-0.849,15.246-2.594,22.999
			l-0.135,0.524c-0.056,0.191-5.627,19.365-10.883,36.924l-1.906,6.313c-3.085,10.207-5.294,17.22-6.58,20.889
			c-5.592,15.998-10.423,29.823-9.6,44.101c1.157,20.125,8.174,36.983,20.29,48.751c11.781,11.455,27.668,17.508,45.941,17.508
			c36.119,0,50.193-16.164,60.022-33.632c10.931-19.44,8.67-44.158-5.626-61.504c-14.294-17.336-29.583-18.214-32.503-18.214
			l-0.16,0.001c-2.006,0.052-3.935,0.912-5.364,2.416c-1.428,1.505-2.186,3.473-2.132,5.543c0.113,4.237,3.551,7.558,7.828,7.558
			h0.364c2.677,0,11.485,2.258,19.986,12.566c10.085,12.244,11.755,30.344,4.064,44.021c-7.613,13.552-16.898,25.717-46.48,25.717
			c-29.908,0-48.873-19.3-50.728-51.626c-0.651-11.145,3.276-22.398,8.71-37.971l0.046-0.136
			c4.9-14.032,47.485-90.735,54.02-101.731c17.887-30.121,12.384-82.057-11.776-111.141l-0.092-0.112
			c-8.669-10.788-10.785-13.853-11.52-15.165c-6.969-11.297-6.232-21.768-4.366-28.588c2.521-9.223,8.681-17.363,16.124-21.339
			c4.814-2.922,10.25-4.404,16.165-4.404c15.819,0,30.173,10.623,33.605,13.357c3.967,2.317,26.882,15.709,37.345,21.985
			c2.605,1.563,5.78,2.389,9.185,2.389c6.825,0,12.837-3.199,15.315-8.149C382.545,153.745,387.208,143.36,377.867,138.395z
			 M286.567,92.002c-4.588,0-8.307-3.719-8.307-8.307s3.719-8.307,8.307-8.307s8.307,3.72,8.307,8.307
			C294.874,88.282,291.155,92.002,286.567,92.002z"/>
	</g>
</g>
<g>
	<g>
		<path d="M268.632,31.894c1.255,0,2.493,0.041,3.721,0.108l-0.006-0.01c-7.351-9.158-14.432-18.951-19.081-27.666
			C242.236,3.402,218.11,1.382,201.614,0l13.709,23.453c1.346,2.305,1.582,5.094,0.638,7.591c-0.943,2.497-2.962,4.436-5.496,5.277
			l-46.008,15.256l9.889,23.763c1.687,4.055,0.147,8.733-3.619,10.991l-34.477,20.681l20.048,27.407
			c2.847,3.892,2.054,9.348-1.784,12.269L128.3,166.641l30.127,27.355c1.815,1.647,2.865,3.973,2.9,6.423
			c0.035,2.451-0.945,4.806-2.71,6.506l-18.051,17.383l37.772,28.318c3.443,2.581,4.532,7.266,2.577,11.101l-15.718,30.841
			c12.675,6.81,36.258,21.882,48.922,45.146c1.047-3.584,1.774-6.083,2.004-6.873c1.415-6.371,2.122-12.693,2.102-18.794
			c-0.069-23.259-10.608-42.172-20.8-60.462c-8.613-15.457-17.519-31.441-19.681-49.551
			c-13.546-88.565,11.112-126.318,34.113-149.319C222.839,43.725,245.292,31.894,268.632,31.894z"/>
	</g>
</g>
</svg>