<svg width="800" height="800" viewBox="0 0 800 800" fill="none" xmlns="http://www.w3.org/2000/svg">
<g clip-path="url(#clip0_75_9)">
<g filter="url(#filter0_d_75_9)">
<path d="M590.416 216.241L589.717 215.844C520.567 173.763 512.371 167.938 494.35 132.045C486.718 116.857 469.699 97.5918 454.694 87.1387C444.694 80.7403 432.935 77.4966 419.737 77.4966C392.415 77.4966 364.268 91.3559 350.587 105.046C317.29 138.343 285.851 189.304 305.1 314.846L305.165 315.333C307.854 338.283 319.893 359.886 332.639 382.761C349.453 412.933 368.509 447.13 368.635 490.611C368.673 502.34 367.309 514.432 364.582 526.546L364.371 527.365C364.284 527.664 355.579 557.623 347.367 585.059L344.388 594.923C339.568 610.871 336.117 621.829 334.107 627.562C325.37 652.558 317.821 674.16 319.107 696.469C320.915 727.914 331.879 754.255 350.81 772.642C369.218 790.541 394.041 799.998 422.593 799.998C479.029 799.998 501.019 774.742 516.377 747.449C533.456 717.074 529.924 678.452 507.586 651.349C485.252 624.262 461.363 622.89 456.801 622.89L456.551 622.891C453.416 622.973 450.402 624.316 448.169 626.666C445.938 629.018 444.754 632.093 444.838 635.327C445.015 641.947 450.386 647.137 457.069 647.137H457.638C461.821 647.137 475.583 650.665 488.866 666.771C504.624 685.902 507.233 714.183 495.216 735.553C483.321 756.728 468.813 775.736 422.591 775.736C375.86 775.736 346.228 745.58 343.329 695.071C342.312 677.657 348.448 660.074 356.938 635.741L357.01 635.529C364.666 613.604 431.205 493.756 441.416 476.575C469.365 429.511 460.766 348.361 423.016 302.918L422.873 302.743C409.327 285.886 406.021 281.097 404.873 279.047C393.984 261.396 395.135 245.035 398.051 234.379C401.99 219.968 411.615 207.249 423.244 201.037C430.766 196.471 439.26 194.156 448.502 194.156C473.219 194.156 495.647 210.754 501.01 215.026C507.208 218.646 543.013 239.571 559.361 249.377C563.431 251.819 568.392 253.11 573.713 253.11C584.377 253.11 593.77 248.112 597.642 240.377C597.725 240.226 605.011 223.999 590.416 216.241Z" fill="black"/>
</g>
<g filter="url(#filter1_d_75_9)">
<path d="M412.112 207.117C388.022 210.621 362.837 218.286 340.499 228.798C328.235 234.711 317.504 239.529 317.066 239.748C316.409 239.748 314.219 241.5 312.029 243.471C302.393 252.669 294.071 259.458 294.071 257.925C294.071 256.83 292.976 257.925 291.662 259.896C290.567 262.086 287.72 263.838 285.749 263.838C282.464 263.838 282.464 264.276 285.311 266.247C287.72 267.999 286.406 268.218 279.836 267.342C273.923 266.466 272.171 266.904 274.361 268.218C276.989 269.97 276.332 270.408 271.733 270.408C263.849 270.408 262.754 273.036 266.696 282.672C268.448 287.052 269.543 291.213 269.105 291.87C268.448 292.308 269.324 294.06 270.857 295.812C278.522 303.477 288.815 359.541 286.406 381.003C284.435 398.742 280.931 412.977 278.522 411.444C277.427 410.787 277.208 411.882 277.865 413.634C278.522 415.386 277.208 420.204 275.018 424.584L271.076 432.468L271.733 408.378C272.828 379.908 270.2 362.388 260.126 332.823C252.899 311.361 240.416 282.234 237.35 280.482C236.693 279.825 227.057 282.891 216.326 287.052C205.376 291.213 194.426 294.717 191.798 294.936C188.951 294.936 187.199 295.812 187.856 296.688C189.17 298.878 173.621 305.667 170.993 304.134C169.679 303.258 169.241 303.696 170.117 305.01C171.431 307.2 163.547 311.142 160.043 310.266C158.948 310.047 158.291 310.704 158.291 311.799C158.291 313.989 149.75 317.712 146.684 316.836C145.589 316.617 145.37 317.055 145.808 317.931C146.246 319.026 138.581 324.72 128.288 331.071C118.214 337.203 110.549 341.145 111.425 339.831C112.082 338.298 110.987 339.174 109.016 341.583C107.045 343.992 104.417 345.744 103.322 345.525C102.227 345.087 101.351 345.744 101.351 346.839C101.351 348.81 78.5754 366.768 75.9474 366.768C75.2904 366.768 72.6624 369.177 70.2534 372.243C67.8444 375.309 64.9974 377.28 64.1214 376.623C63.0264 375.966 61.0554 377.499 59.7414 379.908C58.4274 382.317 56.2374 383.631 54.9234 382.974C53.3904 382.098 53.1714 382.317 54.0474 383.85C54.9234 385.383 54.7044 386.478 53.8284 386.478C52.7334 386.478 51.6384 390.639 51.2004 395.676C50.9814 400.713 50.1054 405.75 49.4484 407.064C48.7914 408.378 48.7914 408.816 49.8864 407.94C51.6384 406.188 60.8364 416.481 60.8364 420.204C60.8364 421.299 62.8074 422.394 65.2164 422.832C67.6254 423.27 72.4434 426.774 75.9474 430.716C79.4514 434.658 81.4224 436.629 80.5464 435.096C79.6704 433.563 84.9264 436.41 92.1534 441.666C99.3804 446.922 104.636 451.959 103.979 453.054C103.322 454.149 103.979 454.368 105.074 453.711C106.388 452.835 109.673 453.93 112.52 456.12C115.367 458.31 124.784 464.442 133.106 469.698C141.647 474.735 149.093 479.991 149.75 481.086C150.407 482.4 151.502 482.838 151.94 482.619C152.378 482.181 161.795 486.123 172.526 491.598C183.476 496.854 201.434 504.738 212.384 509.118C223.553 513.498 232.094 518.097 230.999 518.973C230.123 520.068 230.561 520.068 232.094 519.411C234.503 517.878 269.543 525.981 272.828 528.828C273.923 529.704 275.018 532.332 275.456 534.522C275.675 536.931 276.989 538.464 278.303 538.245C279.398 538.026 284.435 541.53 289.472 546.129C294.29 550.728 298.67 554.013 299.108 553.575C299.546 553.137 302.831 555.546 306.335 558.831C309.839 562.116 313.562 564.525 314.438 564.306C315.533 564.087 319.475 565.62 323.198 567.81C327.14 570.219 334.805 573.723 340.499 575.913C346.193 578.103 350.354 580.512 349.697 581.607C349.04 582.702 349.916 583.14 351.449 582.483C352.982 582.045 361.085 583.359 369.407 585.549C377.729 587.739 383.423 589.929 381.671 590.586C380.138 591.024 382.547 591.462 387.365 591.462C391.964 591.462 404.009 592.338 414.083 593.433C427.223 594.747 432.041 594.528 432.041 592.557C432.041 591.243 430.946 590.148 429.632 590.148C428.537 590.148 428.099 589.053 428.975 587.52C429.851 585.987 429.632 585.768 428.099 586.644C426.566 587.52 423.062 585.768 420.215 582.921C417.149 579.855 414.302 577.884 413.864 578.322C412.331 580.074 398.753 563.43 395.687 555.984C392.183 547.662 391.526 535.398 394.811 535.398C395.906 535.398 396.344 534.084 395.687 532.551C395.03 530.58 398.753 528.828 408.389 526.857C431.603 522.258 473.432 507.366 501.464 494.007C516.137 486.78 528.62 481.524 529.277 481.962C529.934 482.4 530.153 482.181 529.496 481.305C527.744 479.115 552.929 465.318 555.338 466.851C556.652 467.508 556.871 467.07 556.214 465.975C553.367 461.595 584.465 451.302 608.555 448.674L622.133 447.36L628.703 460.5C632.426 467.727 634.835 474.516 633.959 475.392C633.083 476.487 633.302 476.706 634.178 476.049C635.054 475.173 640.967 479.772 646.88 486.123C666.152 506.49 700.754 520.725 735.356 522.477L750.686 523.353L751.343 510.432C752.219 495.321 746.744 466.413 740.612 452.397C738.422 447.141 737.108 441.885 737.984 440.571C738.641 439.257 738.203 439.038 736.889 439.914C735.356 440.79 734.261 440.571 734.261 439.257C734.261 438.162 730.976 432.687 726.815 427.431C722.654 421.956 719.807 416.919 720.464 416.262C721.34 415.605 720.245 414.948 718.055 414.948C716.084 414.948 714.989 413.853 715.646 412.758C716.522 411.444 716.084 410.787 714.989 411.006C713.894 411.444 709.952 409.035 706.448 405.969C702.725 402.684 697.688 399.399 695.06 398.523C692.651 397.866 690.461 396.114 690.461 395.019C690.461 393.705 689.147 393.486 687.833 394.362C685.862 395.457 686.081 394.8 688.052 392.172C689.804 390.201 692.432 388.887 694.184 389.544C695.936 390.201 696.593 389.763 695.936 388.668C694.841 386.697 695.936 386.259 700.535 386.478C701.192 386.697 703.601 384.507 705.791 381.66C708.2 378.813 709.952 377.499 710.171 378.375C710.171 379.47 711.485 378.813 713.018 377.28C736.013 353.19 751.781 312.237 751.781 276.759V263.181L731.633 264.933C720.464 265.809 708.638 266.685 705.353 266.904C702.287 266.904 699.878 267.561 700.316 268.218C700.754 268.875 695.936 271.284 689.804 273.474C676.664 278.073 655.859 290.118 650.165 296.469C647.975 298.878 645.128 300.411 644.252 299.754C643.157 299.097 642.281 300.192 642.281 301.944C642.281 303.915 641.405 305.448 640.091 305.448C638.996 305.448 638.12 306.762 638.558 308.076C638.777 309.609 637.463 310.704 635.711 310.266C633.959 309.828 633.083 310.047 633.959 310.923C634.616 311.799 631.988 319.464 627.827 328.005C623.666 336.546 620.381 345.087 620.381 347.058C620.381 349.686 619.943 349.686 618.41 347.277C617.315 345.744 616.001 345.306 615.344 346.401C613.373 349.467 584.903 345.525 571.544 340.269C554.9 333.699 539.351 324.72 540.665 322.749C541.322 321.654 540.008 321.435 538.037 322.311C535.19 323.406 534.752 322.968 536.066 320.559C536.942 318.807 537.161 318.15 536.066 319.026C534.095 320.997 517.451 312.675 517.451 309.828C517.451 308.514 516.794 307.857 515.918 308.076C512.633 308.952 504.311 305.01 504.311 302.82C504.311 301.506 503.654 300.849 502.997 301.725C501.464 303.258 470.804 290.337 468.833 287.052C467.957 285.738 467.081 285.3 467.081 286.176C467.081 287.052 460.511 285.519 452.408 282.672C444.086 279.825 430.508 275.883 421.748 273.912L405.98 269.97L404.666 260.553C403.571 253.764 404.228 249.165 406.856 243.909C413.207 231.426 419.12 224.199 421.529 225.732C422.843 226.608 423.281 226.389 422.624 225.075C421.31 222.885 431.603 214.125 436.859 213.03C439.925 212.373 442.991 209.088 442.991 206.241C442.991 204.27 428.318 204.708 412.112 207.117Z" fill="black"/>
</g>
</g>
<defs>
<filter id="filter0_d_75_9" x="295.227" y="77.4966" width="308.307" height="730.502" filterUnits="userSpaceOnUse" color-interpolation-filters="sRGB">
<feFlood flood-opacity="0" result="BackgroundImageFix"/>
<feColorMatrix in="SourceAlpha" type="matrix" values="0 0 0 0 0 0 0 0 0 0 0 0 0 0 0 0 0 0 127 0" result="hardAlpha"/>
<feOffset dy="4"/>
<feGaussianBlur stdDeviation="2"/>
<feComposite in2="hardAlpha" operator="out"/>
<feColorMatrix type="matrix" values="0 0 0 0 0 0 0 0 0 0 0 0 0 0 0 0 0 0 0.25 0"/>
<feBlend mode="normal" in2="BackgroundImageFix" result="effect1_dropShadow_75_9"/>
<feBlend mode="normal" in="SourceGraphic" in2="effect1_dropShadow_75_9" result="shape"/>
</filter>
<filter id="filter1_d_75_9" x="45" y="205" width="710.781" height="397.262" filterUnits="userSpaceOnUse" color-interpolation-filters="sRGB">
<feFlood flood-opacity="0" result="BackgroundImageFix"/>
<feColorMatrix in="SourceAlpha" type="matrix" values="0 0 0 0 0 0 0 0 0 0 0 0 0 0 0 0 0 0 127 0" result="hardAlpha"/>
<feOffset dy="4"/>
<feGaussianBlur stdDeviation="2"/>
<feComposite in2="hardAlpha" operator="out"/>
<feColorMatrix type="matrix" values="0 0 0 0 0 0 0 0 0 0 0 0 0 0 0 0 0 0 0.25 0"/>
<feBlend mode="normal" in2="BackgroundImageFix" result="effect1_dropShadow_75_9"/>
<feBlend mode="normal" in="SourceGraphic" in2="effect1_dropShadow_75_9" result="shape"/>
</filter>
<clipPath id="clip0_75_9">
<rect width="800" height="800" fill="white"/>
</clipPath>
</defs>
</svg>
