<svg width="800" height="800" viewBox="0 0 800 800" fill="none" xmlns="http://www.w3.org/2000/svg">
<g clip-path="url(#clip0_83_2)">
<path d="M428.175 653.884C416.451 651.178 401.364 652.736 390.376 657.656C379.8 662.329 370.862 670.529 365.369 680.695C361.762 687.338 359.712 694.798 359.384 702.341C358.892 713.574 363.156 725.955 369.633 735.302C372.83 739.893 376.438 743.665 379.964 746.698C385.621 751.781 392.345 755.144 399.478 757.603C399.642 757.685 399.642 757.685 399.642 757.685C399.642 757.685 399.56 757.685 399.478 757.685C386.277 755.062 374.388 748.666 365.206 738.827C361.024 734.318 357.089 728.906 353.89 722.429C345.609 705.293 346.594 686.763 353.644 669.545C361.269 651.015 379.144 636.666 398.084 631.173C402.183 629.943 406.775 629.205 411.12 628.713C414.236 628.385 417.27 627.975 420.303 627.647C480.403 574.352 584.695 534.587 580.104 420.782C575.594 308.617 514.347 247.042 477.451 219.985C517.872 212.278 546.733 185.549 546.733 185.549L626.839 236.384C631.349 239.253 637.334 237.613 639.712 232.858L661.521 189.566C664.637 183.335 659.8 176.038 652.83 176.53C627.74 178.252 578.628 171.036 532.959 101.672C484.092 27.3052 415.547 0.494026 366.844 0.00207742C361.597 -0.0799141 357.332 4.42962 357.742 9.67707C359.3 30.4209 355.61 79.2879 288.787 89.0448C286.738 89.3728 284.852 90.3567 283.458 91.8326C271.159 105.279 214.913 174.152 253.613 276.067C263.78 275.821 274.931 276.067 286.656 276.887C317.73 279.101 348.887 285.66 377.174 299.107C378.814 299.845 380.372 300.665 382.012 301.485C399.722 310.504 415.955 322.393 429.484 336.987C433.42 341.333 437.109 345.923 440.717 350.598C441.537 351.746 442.193 352.729 442.767 353.467C443.832 355.025 444.406 355.845 444.406 355.845C444.406 355.845 443.668 355.107 442.357 353.713C441.701 353.057 440.881 352.156 439.897 351.253C422.269 333.871 400.623 320.999 377.091 313.455C346.837 303.698 314.204 302.222 282.718 305.338C262.466 307.387 241.313 310.585 221.963 317.144C186.214 329.36 157.599 348.465 141.037 361.174C134.806 365.929 137.265 375.768 144.973 377.162C224.75 391.757 280.423 435.622 296.657 449.725C299.609 452.266 303.872 452.676 307.234 450.627C320.598 442.509 352.656 422.995 352.656 423.077C390.536 490.146 335.192 545.737 312.808 579.927C285.587 621.415 262.384 674.873 279.274 725.462C294.852 771.951 340.194 805.486 389.962 799.254C406.935 797.122 423.333 791.055 438.42 783.02C463.92 769.409 481.793 747.354 480.646 717.18C479.42 685.943 457.2 660.526 428.175 653.884ZM432.356 116.676C431.864 105.361 440.719 95.7681 452.034 95.3582C463.349 94.8662 472.942 103.721 473.352 115.036C473.845 126.351 464.989 135.944 453.674 136.354C442.36 136.845 432.766 127.991 432.356 116.676Z" fill="#24A5EB" stroke="#24A5EB" stroke-width="0.819915"/>
<path d="M733.333 397.333C712.333 331.667 633.333 207 483.333 207C406.415 209.353 332.447 237.135 272.999 286C263.66 277.607 253.624 270.024 242.999 263.333C218.738 248.414 190.814 240.516 162.333 240.516C133.851 240.516 105.928 248.414 81.666 263.333C77.1271 266.322 73.3876 270.374 70.7732 275.138C68.1589 279.902 66.7488 285.233 66.666 290.667C68.0531 333.851 84.8423 375.115 113.999 407C84.8423 438.885 68.0531 480.149 66.666 523.333C66.6944 528.824 68.0785 534.222 70.6953 539.048C73.3122 543.875 77.0807 547.98 81.666 551C105.901 565.992 133.835 573.934 162.333 573.934C190.83 573.934 218.764 565.992 242.999 551C253.748 544.617 263.802 537.133 272.999 528.667C332.535 577.291 406.494 604.835 483.333 607C633.333 607 712.333 482.333 733.333 416.667C734.999 410.33 734.999 403.67 733.333 397.333Z" fill="#A135E1"/>
</g>
<defs>
<clipPath id="clip0_83_2">
<rect width="800" height="800" fill="white"/>
</clipPath>
</defs>
</svg>
