<?xml version="1.0" encoding="iso-8859-1"?>
<!-- Uploaded to: SVG Repo, www.svgrepo.com, Generator: SVG Repo Mixer Tools -->
<!DOCTYPE svg PUBLIC "-//W3C//DTD SVG 1.1//EN" "http://www.w3.org/Graphics/SVG/1.1/DTD/svg11.dtd">
<svg fill="#000000" height="800px" width="800px" version="1.1" id="Capa_1" xmlns="http://www.w3.org/2000/svg" xmlns:xlink="http://www.w3.org/1999/xlink" 
	 viewBox="0 0 422.629 422.629" xml:space="preserve">
<g>
	<path d="M184.334,240.24c3.346,0,6.396-2.256,7.262-5.647c1.023-4.014-1.399-8.098-5.413-9.122l-24.787-6.325
		c-4.01-1.022-8.097,1.399-9.122,5.413c-1.023,4.014,1.399,8.098,5.413,9.122l24.787,6.325
		C183.096,240.164,183.72,240.24,184.334,240.24z"/>
	<path d="M240.817,64.191c0-16.266-13.233-29.5-29.5-29.5s-29.5,13.234-29.5,29.5s13.233,29.5,29.5,29.5
		S240.817,80.458,240.817,64.191z M196.817,64.191c0-7.995,6.505-14.5,14.5-14.5s14.5,6.505,14.5,14.5s-6.505,14.5-14.5,14.5
		S196.817,72.187,196.817,64.191z"/>
	<path d="M243.74,282.098c-20.91-7.159-43.94-7.16-64.851,0c-3.919,1.342-6.008,5.606-4.666,9.525
		c1.066,3.114,3.978,5.073,7.095,5.073c0.806,0,1.626-0.131,2.431-0.406c17.776-6.086,37.357-6.086,55.132,0
		c3.92,1.341,8.184-0.747,9.525-4.667C249.747,287.704,247.658,283.439,243.74,282.098z"/>
	<path d="M389.776,224.563c4.607-5.707,6.006-13.279,3.741-20.253c-2.266-6.978-7.848-12.285-14.934-14.198l-92.833-25.054
		c-1.57-0.42-2.927-1.406-3.817-2.771l-3.743-5.743c9.151,2.218,18.211,4.887,27.135,8.031c0.821,0.29,1.662,0.428,2.491,0.428
		c2.795,0,5.451-1.571,6.74-4.209l21.496-44c1.135-2.324,0.992-5.07-0.378-7.264S331.9,106,329.313,106h-18.5
		c-15.99,0-29-13.009-29-29v-6.503C281.813,31.625,250.189,0,211.317,0S140.82,31.625,140.82,70.497V77c0,15.99-13.01,29-29,29
		h-18.5c-2.587,0-4.991,1.333-6.361,3.528s-1.513,4.94-0.377,7.265l21.497,44c1.672,3.421,5.642,5.048,9.23,3.781
		c8.923-3.144,17.981-5.812,27.131-8.03l-3.739,5.737c-0.896,1.37-2.251,2.356-3.825,2.78l-92.831,25.05
		c-7.084,1.913-12.666,7.221-14.932,14.198c-2.265,6.975-0.866,14.546,3.74,20.252l60.381,74.831
		c1.019,1.262,1.535,2.861,1.456,4.49l-4.86,96.026c-0.374,7.321,2.944,14.267,8.878,18.58c3.761,2.733,8.203,4.142,12.696,4.141
		c2.601,0,5.219-0.472,7.73-1.431l89.826-34.292c1.521-0.581,3.192-0.581,4.715,0.002l89.828,34.29
		c6.849,2.615,14.479,1.606,20.413-2.702c5.936-4.31,9.261-11.255,8.894-18.583l-4.86-96.039c-0.084-1.623,0.433-3.214,1.457-4.483
		L389.776,224.563z M269.369,170.48c2.916,4.468,7.355,7.688,12.486,9.062l92.818,25.05c3.13,0.845,4.243,3.323,4.576,4.349
		c0.333,1.025,0.887,3.68-1.147,6.201l-55.287,68.529l-34.28-32.268c3.982-6.468,6.284-14.075,6.284-22.212
		c0-23.435-19.065-42.5-42.5-42.5c-9.057,0-17.454,2.857-24.357,7.703l-46.97-44.216c25.469-2.728,51.252-2.002,76.555,2.167
		L269.369,170.48z M252.32,201.691c15.163,0,27.5,12.336,27.5,27.5s-12.337,27.5-27.5,27.5c-15.163,0-27.5-12.336-27.5-27.5
		S237.157,201.691,252.32,201.691z M105.331,121h6.488c24.262,0,44-19.738,44-44v-6.503C155.82,39.896,180.715,15,211.317,15
		c30.601,0,55.496,24.896,55.496,55.497V77c0,24.261,19.738,44,44,44h6.488l-13.325,27.275
		c-30.007-9.812-61.333-14.718-92.659-14.718c-31.327,0-62.652,4.906-92.659,14.718L105.331,121z M315.104,406.358
		c-0.873,0.634-3.228,1.98-6.249,0.827l-89.824-34.288c-4.975-1.904-10.457-1.905-15.426-0.002l-89.822,34.291
		c-3.026,1.158-5.383-0.196-6.256-0.831c-0.872-0.634-2.882-2.456-2.717-5.684l4.861-96.042c0.261-5.322-1.432-10.528-4.765-14.657
		l-60.381-74.831c-2.033-2.519-1.479-5.175-1.146-6.199c0.333-1.026,1.446-3.504,4.574-4.349l92.821-25.048
		c5.136-1.379,9.569-4.598,12.488-9.067l10.423-15.99l53.695,50.547c-4.761,6.865-7.561,15.188-7.561,24.157
		c0,23.435,19.065,42.5,42.5,42.5c9.891,0,18.995-3.406,26.225-9.093l35.699,33.604c-0.97,2.681-1.425,5.542-1.274,8.438
		l4.86,96.026C317.991,403.9,315.977,405.724,315.104,406.358z"/>
</g>
</svg>